<svg data-v-423bf9ae="" xmlns="http://www.w3.org/2000/svg" viewBox="0 0 441 91" class="iconLeft"><!----><!----><!----><g data-v-423bf9ae="" id="3b7ba67e-cbf0-4d05-8beb-939f68f5f684" fill="#000000" transform="matrix(4.467609727222167,0,0,4.467609727222167,108.31502326084004,-2.379000765566822)"><path d="M1.09 14.35L7.10 14.35L7.10 13.66L4.16 13.66L4.16 10.05C4.16 8.75 5.03 7.91 6.33 7.91L7.81 7.91L7.81 7.13L6.57 7.13C5.14 7.13 4.51 7.90 4.21 8.78L4.16 8.78L4.16 7.13L1.09 7.13L1.09 7.81L3.36 7.81L3.36 13.66L1.09 13.66ZM12.71 14.52C14.13 14.52 15.12 13.80 15.55 12.75L14.95 12.38C14.55 13.31 13.76 13.82 12.71 13.82C11.21 13.82 10.32 12.78 10.32 11.24L10.32 10.89L15.74 10.89L15.74 10.54C15.74 8.41 14.57 6.96 12.64 6.96C10.72 6.96 9.48 8.36 9.48 10.75C9.48 13.12 10.71 14.52 12.71 14.52ZM12.64 7.63C14.03 7.63 14.88 8.62 14.88 10.18L14.88 10.29L10.32 10.29L10.32 10.21C10.32 8.67 11.24 7.63 12.64 7.63ZM24.56 15.20C24.56 14.08 23.80 13.37 22.05 13.37L20.33 13.37C19.53 13.37 19.15 13.16 19.15 12.74C19.15 12.24 19.68 11.94 20.27 11.80C20.52 11.86 20.75 11.87 21 11.87C22.60 11.87 23.66 10.88 23.66 9.42C23.66 8.68 23.39 8.06 22.93 7.64L22.93 6.99L24.58 6.99L24.58 6.29L23.17 6.29C22.68 6.29 22.48 6.58 22.48 7.03L22.48 7.32C22.08 7.08 21.57 6.96 21 6.96C19.39 6.96 18.35 7.95 18.35 9.42C18.35 10.46 18.86 11.24 19.71 11.61L19.71 11.66C19.01 11.84 18.45 12.21 18.45 12.91C18.45 13.38 18.68 13.71 19.14 13.89L19.14 14C18.34 14.24 17.86 14.70 17.86 15.51C17.86 16.65 18.79 17.32 21.03 17.32C23.32 17.32 24.56 16.65 24.56 15.20ZM23.80 15.23C23.80 16.20 22.90 16.67 21.48 16.67L20.54 16.67C19.28 16.67 18.65 16.11 18.65 15.36C18.65 14.71 19.04 14.32 19.68 14.11L22.05 14.11C23.35 14.11 23.80 14.55 23.80 15.23ZM21 11.24C19.82 11.24 19.19 10.57 19.19 9.65L19.19 9.18C19.19 8.25 19.81 7.59 21 7.59C22.20 7.59 22.82 8.25 22.82 9.18L22.82 9.65C22.82 10.57 22.20 11.24 21 11.24ZM29.85 5.19C30.35 5.19 30.55 4.96 30.55 4.63L30.55 4.45C30.55 4.13 30.35 3.89 29.85 3.89C29.34 3.89 29.15 4.13 29.15 4.45L29.15 4.63C29.15 4.96 29.34 5.19 29.85 5.19ZM26.74 14.35L32.79 14.35L32.79 13.66L30.25 13.66L30.25 7.13L26.74 7.13L26.74 7.81L29.46 7.81L29.46 13.66L26.74 13.66ZM37.95 14.52C39.69 14.52 40.89 13.76 40.89 12.32C40.89 10.86 39.65 10.56 38.51 10.39L37.38 10.22C36.51 10.09 35.84 9.86 35.84 8.97C35.84 8.08 36.57 7.63 37.79 7.63C39.10 7.63 39.77 8.15 40.17 8.61L40.70 8.11C40.07 7.45 39.17 6.96 37.83 6.96C36.25 6.96 35.04 7.60 35.04 9.03C35.04 10.49 36.30 10.79 37.44 10.96L38.56 11.12C39.44 11.24 40.11 11.48 40.11 12.36C40.11 13.37 39.23 13.85 37.97 13.85C36.76 13.85 35.92 13.44 35.21 12.63L34.66 13.10C35.43 14 36.50 14.52 37.95 14.52ZM49.34 14.35L49.34 13.66L45.89 13.66L45.89 7.81L49.34 7.81L49.34 7.13L45.89 7.13L45.89 4.58L45.12 4.58L45.12 6.57C45.12 6.97 44.97 7.13 44.56 7.13L42.53 7.13L42.53 7.81L45.09 7.81L45.09 13.19C45.09 13.89 45.46 14.35 46.23 14.35ZM54.60 14.45C55.19 14.45 55.41 14.18 55.41 13.79L55.41 13.59C55.41 13.22 55.19 12.94 54.60 12.94C54.01 12.94 53.79 13.22 53.79 13.59L53.79 13.79C53.79 14.18 54.01 14.45 54.60 14.45ZM63.28 14.52C64.67 14.52 65.55 13.80 65.95 12.87L65.37 12.49C64.99 13.31 64.30 13.82 63.28 13.82C61.80 13.82 60.97 12.78 60.97 11.24L60.97 10.23C60.97 8.69 61.80 7.66 63.27 7.66C64.23 7.66 64.90 8.11 65.20 8.90L65.84 8.58C65.48 7.63 64.61 6.96 63.27 6.96C61.29 6.96 60.12 8.36 60.12 10.74C60.12 13.10 61.28 14.52 63.28 14.52ZM71.68 14.52C73.07 14.52 73.95 13.80 74.35 12.87L73.77 12.49C73.39 13.31 72.70 13.82 71.68 13.82C70.20 13.82 69.37 12.78 69.37 11.24L69.37 10.23C69.37 8.69 70.20 7.66 71.67 7.66C72.63 7.66 73.30 8.11 73.60 8.90L74.24 8.58C73.88 7.63 73.01 6.96 71.67 6.96C69.69 6.96 68.52 8.36 68.52 10.74C68.52 13.10 69.68 14.52 71.68 14.52Z"></path></g><defs data-v-423bf9ae=""><linearGradient data-v-423bf9ae="" gradientTransform="rotate(25)" id="8e4eaf5a-3e0c-4f24-bbdc-b31afa4d434e" x1="0%" y1="0%" x2="100%" y2="0%"><stop data-v-423bf9ae="" offset="0%" style="stop-color: rgb(0, 116, 255); stop-opacity: 1;"></stop><stop data-v-423bf9ae="" offset="100%" style="stop-color: rgb(24, 0, 255); stop-opacity: 1;"></stop></linearGradient></defs><g data-v-423bf9ae="" id="e8311a0e-e121-4115-ad10-53390f40b573" transform="matrix(1.3297872280464118,0,0,1.3297872280464118,0.3828776975949637,-0.025736353268676737)" stroke="none" fill="url(#8e4eaf5a-3e0c-4f24-bbdc-b31afa4d434e)"><g data-name="Layer 2"><g data-name="Layer 1"><path d="M33.88 64.52c-3.5 0-7.29-6.92-9-17.85 2.79.27 5.79.42 9 .42v-3.23a85.78 85.78 0 0 1-9.47-.51 88.21 88.21 0 0 1 0-18.93 88.22 88.22 0 0 1 18.93 0 85.77 85.77 0 0 1 .51 9.47h3.24c0-3.23-.15-6.23-.42-9 10.93 1.73 17.85 5.52 17.85 9a30.88 30.88 0 0 1-.64 6.24l3.17.66A33.84 33.84 0 1 0 44.5 66.06l-1-3.07a30.6 30.6 0 0 1-9.62 1.53zm30-36.9c-3.54-2.7-9.47-5-17.61-6.14-1.16-8.14-3.44-14.07-6.14-17.61a30.74 30.74 0 0 1 23.75 23.76zm-30-24.39c3.5 0 7.29 6.92 9 17.85-2.79-.27-5.79-.42-9-.42s-6.23.15-9 .42c1.71-10.93 5.5-17.84 9-17.84zm-6.25.64c-2.7 3.54-5 9.47-6.14 17.61-8.14 1.16-14.07 3.44-17.61 6.14A30.74 30.74 0 0 1 27.62 3.88zm-6.54 21c-.27 2.79-.42 5.79-.42 9s.15 6.23.42 9c-10.93-1.73-17.85-5.52-17.85-9s6.91-7.28 17.85-9.01zM3.88 40.13c3.54 2.7 9.47 5 17.61 6.14 1.16 8.14 3.44 14.07 6.14 17.61A30.73 30.73 0 0 1 3.88 40.13z"></path><path d="M42.27 39.1l7.63 28.25 5.08-12.92 15.17-2.18L42.27 39.1z"></path></g></g></g><!----></svg>